<svg width="100" height="100" viewBox="0 0 100 100" fill="none" xmlns="http://www.w3.org/2000/svg">
<g clip-path="url(#clip0_534_97)">
<path d="M55.7991 -8.72009C55.7857 -8.87803 55.8182 -9.03475 55.8924 -9.17031C55.9666 -9.30586 56.0791 -9.41413 56.2157 -9.48134C56.3522 -9.54854 56.5067 -9.57165 56.6594 -9.54772C56.812 -9.52378 56.956 -9.45389 57.073 -9.34694L62.9047 -4.06621C63.0138 -3.96741 63.1462 -3.90051 63.2873 -3.87288C63.4284 -3.84525 63.5727 -3.85795 63.7044 -3.9096L70.7426 -6.66807C71.3791 -6.91749 72.0201 -6.23943 71.76 -5.59315L68.886 1.56505C68.8322 1.69865 68.8158 1.84629 68.8386 1.99177C68.8613 2.13725 68.9223 2.27497 69.0149 2.38983L73.9908 8.52863C74.0907 8.65176 74.1539 8.80126 74.1726 8.95823C74.1912 9.11521 74.1644 9.27262 74.0956 9.4106C74.0267 9.54857 73.9189 9.66091 73.7857 9.73343C73.6525 9.80595 73.4999 9.8354 73.3472 9.81805L65.737 8.96221C65.5949 8.94618 65.4527 8.97068 65.3261 9.03299C65.1994 9.09531 65.0933 9.19303 65.0193 9.31541L61.0548 15.8684C60.9754 16 60.8589 16.1029 60.7202 16.1642C60.5815 16.2255 60.4267 16.2424 60.2754 16.2128C60.124 16.1831 59.983 16.1083 59.87 15.9978C59.757 15.8872 59.6771 15.7459 59.6405 15.5916L57.812 7.90249C57.7777 7.75897 57.7058 7.62653 57.6044 7.51972C57.503 7.41291 57.3759 7.33588 57.2372 7.29711L49.8123 5.20674C49.663 5.16512 49.5274 5.07928 49.4227 4.96007C49.3181 4.84087 49.249 4.69368 49.2242 4.53714C49.1995 4.38059 49.2202 4.22175 49.2838 4.08071C49.3474 3.93967 49.4509 3.82279 49.5813 3.74486L56.0611 -0.148501C56.1823 -0.221321 56.2805 -0.327926 56.3447 -0.456583C56.4089 -0.58524 56.4366 -0.730963 56.4249 -0.877717L55.7991 -8.72009Z" stroke="black" stroke-width="2" stroke-linecap="round" stroke-linejoin="round"/>
<path d="M1.5119 32.8812C1.59839 32.7483 1.7203 32.6447 1.86212 32.5833C2.00393 32.5219 2.15924 32.5056 2.3083 32.5365C2.45735 32.5674 2.5934 32.6441 2.69914 32.7567C2.80489 32.8694 2.87555 33.013 2.90213 33.1693L4.25881 40.9187C4.28421 41.0637 4.34758 41.1979 4.44193 41.3064C4.53629 41.4149 4.65797 41.4935 4.7936 41.5337L12.0415 43.6815C12.6969 43.8758 12.7861 44.8046 12.1838 45.1547L5.5182 49.0367C5.39369 49.1091 5.29004 49.2155 5.2186 49.3442C5.14716 49.473 5.11069 49.6191 5.11319 49.7667L5.26743 57.6673C5.27058 57.8258 5.22865 57.9826 5.14692 58.118C5.06519 58.2533 4.94733 58.361 4.80822 58.4276C4.66912 58.4941 4.51501 58.5165 4.36537 58.4919C4.21572 58.4673 4.07725 58.3967 3.96744 58.2893L-1.51112 52.9383C-1.6134 52.8383 -1.74065 52.7703 -1.87886 52.7417C-2.01706 52.713 -2.16087 52.7249 -2.29446 52.776L-9.44859 55.5105C-9.59207 55.5655 -9.74716 55.5752 -9.89427 55.5383C-10.0414 55.5014 -10.1739 55.4196 -10.2751 55.3033C-10.3763 55.1869 -10.4416 55.0412 -10.4629 54.8846C-10.4841 54.7279 -10.4602 54.5674 -10.3944 54.4231L-7.11283 47.233C-7.05176 47.0987 -7.02707 46.9501 -7.04146 46.8035C-7.05585 46.6569 -7.10877 46.5181 -7.1944 46.4022L-11.7683 40.1911C-11.8605 40.0665 -11.9148 39.9155 -11.9241 39.7571C-11.9335 39.5987 -11.8975 39.4402 -11.8209 39.3015C-11.7442 39.1628 -11.6302 39.0502 -11.4934 38.9779C-11.3566 38.9057 -11.2031 38.8771 -11.0524 38.8957L-3.54779 39.8051C-3.40737 39.8221 -3.26445 39.7983 -3.13475 39.7362C-3.00505 39.6742 -2.8936 39.5763 -2.81266 39.4533L1.5119 32.8812Z" stroke="black" stroke-width="2" stroke-linecap="round" stroke-linejoin="round"/>
<path d="M43.6113 44.4138L40.1069 39.4558L40.4636 45.5168C40.5555 47.0825 40.247 48.6458 39.5671 50.0591C38.8872 51.4725 37.8584 52.6893 36.5778 53.5947L31.6186 57.1018L37.6796 56.7451C39.2452 56.6532 40.8085 56.9617 42.2219 57.6416C43.6352 58.3215 44.852 59.3503 45.7575 60.6309L49.2645 65.5901L48.9078 59.5291C48.8159 57.9635 49.1245 56.4002 49.8044 54.9868C50.4842 53.5735 51.513 52.3567 52.7936 51.4512L57.7529 47.9442L51.6919 48.3009C50.1262 48.3927 48.5629 48.0842 47.1496 47.4043C45.7362 46.7245 44.5194 45.6957 43.614 44.4151L43.6113 44.4138ZM64.8383 52.6015L63.6349 50.7736L63.8356 52.9529C63.9511 54.2023 63.725 55.4595 63.1813 56.5903C62.6376 57.721 61.7969 58.6828 60.749 59.3728L58.9191 60.5769L61.1004 60.3755C62.3498 60.2605 63.6069 60.4872 64.7375 61.0313C65.868 61.5754 66.8294 62.4165 67.519 63.4647L68.7224 65.2927L68.5217 63.1133C68.4063 61.8637 68.6327 60.6062 69.1767 59.4753C69.7207 58.3444 70.5619 57.3826 71.6102 56.6928L73.4382 55.4893L71.2589 55.69C70.0092 55.8055 68.7517 55.5791 67.6208 55.0351C66.4899 54.4911 65.5281 53.6499 64.8383 52.6015ZM54.1561 30.5835L52.5909 28.5606L52.6307 31.118C52.6416 31.8344 52.4856 32.5436 52.175 33.1893C51.8644 33.8349 51.4078 34.3994 50.8412 34.8381L48.8183 36.4033L51.3757 36.3635C52.0922 36.3526 52.8013 36.5086 53.447 36.8192C54.0927 37.1298 54.6572 37.5864 55.0958 38.153L56.661 40.1759L56.6212 37.6185C56.6103 36.902 56.7663 36.1929 57.0769 35.5472C57.3875 34.9015 57.8441 34.337 58.4107 33.8984L60.4336 32.3332L57.8762 32.373C57.1598 32.3839 56.4506 32.2279 55.8049 31.9173C55.1593 31.6067 54.5948 31.1501 54.1561 30.5835Z" stroke="black" stroke-width="2" stroke-linecap="round" stroke-linejoin="round"/>
<path d="M-0.445148 96.9196L-5.05598 100.87L-3.22742 95.0801C-2.7553 93.5845 -2.67205 91.9932 -2.98552 90.4565C-3.29898 88.9198 -3.99883 87.4882 -5.01902 86.297L-8.96968 81.6834L-3.1801 83.5119C-1.68447 83.984 -0.093218 84.0673 1.44351 83.7538C2.98024 83.4403 4.41175 82.7405 5.60297 81.7203L10.2166 77.7696L8.38808 83.5592C7.91597 85.0549 7.83272 86.6461 8.14618 88.1828C8.45965 89.7196 9.1595 91.1511 10.1797 92.3423L14.1303 96.956L8.34077 95.1274C6.84514 94.6553 5.25389 94.572 3.71716 94.8855C2.18043 95.199 0.748916 95.8988 -0.442304 96.919L-0.445148 96.9196ZM22.1399 94.1734L20.5258 95.6514L21.2535 93.5874C21.6712 92.4043 21.7595 91.1299 21.5089 89.9005C21.2584 88.6711 20.6785 87.5329 19.8312 86.6075L18.3515 84.9923L20.4172 85.7212C21.6005 86.1384 22.8749 86.2261 24.1042 85.9751C25.3335 85.7241 26.4715 85.1437 27.3965 84.296L29.0106 82.8181L28.2829 84.8821C27.8652 86.0655 27.7771 87.3402 28.0279 88.5698C28.2787 89.7994 28.8591 90.9378 29.7069 91.863L31.1849 93.4771L29.1208 92.7494C27.9374 92.3317 26.6627 92.2436 25.4331 92.4944C24.2035 92.7453 23.0652 93.3256 22.1399 94.1734ZM6.39597 112.909L4.38346 114.488L5.04761 112.018C5.23348 111.326 5.25569 110.6 5.11249 109.898C4.96928 109.196 4.66459 108.537 4.22254 107.973L2.64403 105.961L5.11401 106.625C5.80598 106.811 6.53173 106.833 7.23378 106.69C7.93582 106.546 8.59489 106.242 9.15877 105.8L11.1713 104.221L10.5071 106.691C10.3213 107.383 10.299 108.109 10.4423 108.811C10.5855 109.513 10.8901 110.172 11.3322 110.736L12.9107 112.748L10.4407 112.084C9.74875 111.898 9.02301 111.876 8.32096 112.019C7.61892 112.163 6.95986 112.467 6.39597 112.909Z" stroke="black" stroke-width="2" stroke-linecap="round" stroke-linejoin="round"/>
<path d="M55.7991 91.2799C55.7857 91.122 55.8182 90.9653 55.8924 90.8297C55.9666 90.6941 56.0791 90.5859 56.2157 90.5187C56.3522 90.4515 56.5067 90.4283 56.6594 90.4523C56.812 90.4762 56.956 90.5461 57.073 90.6531L62.9047 95.9338C63.0138 96.0326 63.1462 96.0995 63.2873 96.1271C63.4284 96.1548 63.5727 96.142 63.7044 96.0904L70.7426 93.3319C71.3791 93.0825 72.0201 93.7606 71.76 94.4069L68.886 101.565C68.8322 101.699 68.8158 101.846 68.8386 101.992C68.8613 102.137 68.9223 102.275 69.0149 102.39L73.9908 108.529C74.0907 108.652 74.1539 108.801 74.1726 108.958C74.1912 109.115 74.1644 109.273 74.0956 109.411C74.0267 109.549 73.9189 109.661 73.7857 109.733C73.6525 109.806 73.4999 109.835 73.3472 109.818L65.737 108.962C65.5949 108.946 65.4527 108.971 65.3261 109.033C65.1994 109.095 65.0933 109.193 65.0193 109.315L61.0548 115.868C60.9754 116 60.8589 116.103 60.7202 116.164C60.5815 116.225 60.4267 116.242 60.2754 116.213C60.124 116.183 59.983 116.108 59.87 115.998C59.757 115.887 59.6771 115.746 59.6405 115.592L57.812 107.902C57.7777 107.759 57.7058 107.627 57.6044 107.52C57.503 107.413 57.3759 107.336 57.2372 107.297L49.8123 105.207C49.663 105.165 49.5274 105.079 49.4227 104.96C49.3181 104.841 49.249 104.694 49.2242 104.537C49.1995 104.381 49.2202 104.222 49.2838 104.081C49.3474 103.94 49.4509 103.823 49.5813 103.745L56.0611 99.8515C56.1823 99.7787 56.2805 99.6721 56.3447 99.5434C56.4089 99.4148 56.4366 99.269 56.4249 99.1223L55.7991 91.2799Z" stroke="black" stroke-width="2" stroke-linecap="round" stroke-linejoin="round"/>
<path d="M101.512 32.8812C101.598 32.7483 101.72 32.6447 101.862 32.5833C102.004 32.5219 102.159 32.5056 102.308 32.5365C102.457 32.5674 102.593 32.6441 102.699 32.7567C102.805 32.8694 102.876 33.013 102.902 33.1693L104.259 40.9187C104.284 41.0637 104.348 41.1979 104.442 41.3064C104.536 41.4149 104.658 41.4935 104.794 41.5337L112.042 43.6815C112.697 43.8758 112.786 44.8046 112.184 45.1547L105.518 49.0367C105.394 49.1091 105.29 49.2155 105.219 49.3442C105.147 49.473 105.111 49.6191 105.113 49.7667L105.267 57.6673C105.271 57.8258 105.229 57.9826 105.147 58.118C105.065 58.2533 104.947 58.361 104.808 58.4276C104.669 58.4941 104.515 58.5165 104.365 58.4919C104.216 58.4673 104.077 58.3967 103.967 58.2893L98.4889 52.9383C98.3866 52.8383 98.2593 52.7703 98.1211 52.7417C97.9829 52.713 97.8391 52.7249 97.7055 52.776L90.5514 55.5105C90.4079 55.5655 90.2528 55.5752 90.1057 55.5383C89.9586 55.5014 89.8261 55.4196 89.7249 55.3033C89.6237 55.1869 89.5584 55.0412 89.5371 54.8846C89.5159 54.7279 89.5398 54.5674 89.6056 54.4231L92.8872 47.233C92.9482 47.0987 92.9729 46.9501 92.9585 46.8035C92.9441 46.6569 92.8912 46.5181 92.8056 46.4022L88.2317 40.1911C88.1395 40.0665 88.0852 39.9155 88.0759 39.7571C88.0665 39.5987 88.1025 39.4402 88.1791 39.3015C88.2558 39.1628 88.3698 39.0502 88.5066 38.9779C88.6434 38.9057 88.7969 38.8771 88.9476 38.8957L96.4522 39.8051C96.5926 39.8221 96.7355 39.7983 96.8652 39.7362C96.9949 39.6742 97.1064 39.5763 97.1873 39.4533L101.512 32.8812Z" stroke="black" stroke-width="2" stroke-linecap="round" stroke-linejoin="round"/>
<path d="M99.5549 96.9196L94.944 100.87L96.7726 95.0801C97.2447 93.5845 97.328 91.9932 97.0145 90.4565C96.701 88.9198 96.0012 87.4882 94.981 86.297L91.0303 81.6834L96.8199 83.5119C98.3155 83.984 99.9068 84.0673 101.444 83.7538C102.98 83.4403 104.412 82.7405 105.603 81.7203L110.217 77.7696L108.388 83.5592C107.916 85.0549 107.833 86.6461 108.146 88.1828C108.46 89.7196 109.16 91.1511 110.18 92.3423L114.13 96.956L108.341 95.1274C106.845 94.6553 105.254 94.572 103.717 94.8855C102.18 95.199 100.749 95.8988 99.5577 96.919L99.5549 96.9196ZM122.14 94.1734L120.526 95.6514L121.254 93.5874C121.671 92.4043 121.759 91.1299 121.509 89.9005C121.258 88.6711 120.679 87.5329 119.831 86.6075L118.352 84.9923L120.417 85.7212C121.601 86.1384 122.875 86.2261 124.104 85.9751C125.334 85.7241 126.471 85.1437 127.396 84.296L129.011 82.8181L128.283 84.8821C127.865 86.0655 127.777 87.3402 128.028 88.5698C128.279 89.7994 128.859 90.9378 129.707 91.863L131.185 93.4771L129.121 92.7494C127.937 92.3317 126.663 92.2436 125.433 92.4944C124.203 92.7453 123.065 93.3256 122.14 94.1734ZM106.396 112.909L104.383 114.488L105.048 112.018C105.233 111.326 105.256 110.6 105.112 109.898C104.969 109.196 104.665 108.537 104.223 107.973L102.644 105.961L105.114 106.625C105.806 106.811 106.532 106.833 107.234 106.69C107.936 106.546 108.595 106.242 109.159 105.8L111.171 104.221L110.507 106.691C110.321 107.383 110.299 108.109 110.442 108.811C110.585 109.513 110.89 110.172 111.332 110.736L112.911 112.748L110.441 112.084C109.749 111.898 109.023 111.876 108.321 112.019C107.619 112.163 106.96 112.467 106.396 112.909Z" stroke="black" stroke-width="2" stroke-linecap="round" stroke-linejoin="round"/>
<path d="M99.5549 -3.0804L94.944 0.869672L96.7726 -4.91991C97.2447 -6.41553 97.328 -8.00679 97.0145 -9.54352C96.701 -11.0802 96.0012 -12.5118 94.981 -13.703L91.0303 -18.3166L96.8199 -16.4881C98.3155 -16.016 99.9068 -15.9327 101.444 -16.2462C102.98 -16.5597 104.412 -17.2595 105.603 -18.2797L110.217 -22.2304L108.388 -16.4408C107.916 -14.9451 107.833 -13.3539 108.146 -11.8172C108.46 -10.2804 109.16 -8.84892 110.18 -7.6577L114.13 -3.04403L108.341 -4.87259C106.845 -5.34471 105.254 -5.42796 103.717 -5.11449C102.18 -4.80102 100.749 -4.10117 99.5577 -3.08098L99.5549 -3.0804ZM122.14 -5.82659L120.526 -4.3486L121.254 -6.41261C121.671 -7.59572 121.759 -8.87009 121.509 -10.0995C121.258 -11.3289 120.679 -12.4671 119.831 -13.3925L118.352 -15.0077L120.417 -14.2788C121.601 -13.8616 122.875 -13.7739 124.104 -14.0249C125.334 -14.2759 126.471 -14.8563 127.396 -15.704L129.011 -17.1819L128.283 -15.1179C127.865 -13.9345 127.777 -12.6598 128.028 -11.4302C128.279 -10.2006 128.859 -9.06224 129.707 -8.13695L131.185 -6.52288L129.121 -7.2506C127.937 -7.66825 126.663 -7.75638 125.433 -7.50555C124.203 -7.25473 123.065 -6.67439 122.14 -5.82659ZM106.396 12.9093L104.383 14.4878L105.048 12.0178C105.233 11.3258 105.256 10.6001 105.112 9.89805C104.969 9.19601 104.665 8.53694 104.223 7.97306L102.644 5.96055L105.114 6.6247C105.806 6.81057 106.532 6.83278 107.234 6.68958C107.936 6.54637 108.595 6.24168 109.159 5.79964L111.171 4.22112L110.507 6.6911C110.321 7.38308 110.299 8.10882 110.442 8.81087C110.585 9.51291 110.89 10.172 111.332 10.7359L112.911 12.7484L110.441 12.0842C109.749 11.8983 109.023 11.8761 108.321 12.0193C107.619 12.1625 106.96 12.4672 106.396 12.9093Z" stroke="black" stroke-width="2" stroke-linecap="round" stroke-linejoin="round"/>
<path d="M-0.445148 -3.0804L-5.05598 0.869672L-3.22742 -4.91991C-2.7553 -6.41553 -2.67205 -8.00679 -2.98552 -9.54352C-3.29898 -11.0802 -3.99883 -12.5118 -5.01902 -13.703L-8.96968 -18.3166L-3.1801 -16.4881C-1.68447 -16.016 -0.093218 -15.9327 1.44351 -16.2462C2.98024 -16.5597 4.41175 -17.2595 5.60297 -18.2797L10.2166 -22.2304L8.38808 -16.4408C7.91597 -14.9451 7.83272 -13.3539 8.14618 -11.8172C8.45965 -10.2804 9.1595 -8.84892 10.1797 -7.6577L14.1303 -3.04403L8.34077 -4.87259C6.84514 -5.34471 5.25389 -5.42796 3.71716 -5.11449C2.18043 -4.80102 0.748916 -4.10117 -0.442304 -3.08098L-0.445148 -3.0804ZM22.1399 -5.82659L20.5258 -4.3486L21.2535 -6.41261C21.6712 -7.59572 21.7595 -8.87009 21.5089 -10.0995C21.2584 -11.3289 20.6785 -12.4671 19.8312 -13.3925L18.3515 -15.0077L20.4172 -14.2788C21.6005 -13.8616 22.8749 -13.7739 24.1042 -14.0249C25.3335 -14.2759 26.4715 -14.8563 27.3965 -15.704L29.0106 -17.1819L28.2829 -15.1179C27.8652 -13.9345 27.7771 -12.6598 28.0279 -11.4302C28.2787 -10.2006 28.8591 -9.06224 29.7069 -8.13695L31.1849 -6.52288L29.1208 -7.2506C27.9374 -7.66825 26.6627 -7.75638 25.4331 -7.50555C24.2035 -7.25473 23.0652 -6.67439 22.1399 -5.82659ZM6.39597 12.9093L4.38346 14.4878L5.04761 12.0178C5.23348 11.3258 5.25569 10.6001 5.11249 9.89805C4.96928 9.19601 4.66459 8.53694 4.22254 7.97306L2.64403 5.96055L5.11401 6.6247C5.80598 6.81057 6.53173 6.83278 7.23378 6.68958C7.93582 6.54637 8.59489 6.24168 9.15877 5.79964L11.1713 4.22112L10.5071 6.6911C10.3213 7.38308 10.299 8.10882 10.4423 8.81087C10.5855 9.51291 10.8901 10.172 11.3322 10.7359L12.9107 12.7484L10.4407 12.0842C9.74875 11.8983 9.02301 11.8761 8.32096 12.0193C7.61892 12.1625 6.95986 12.4672 6.39597 12.9093Z" stroke="black" stroke-width="2" stroke-linecap="round" stroke-linejoin="round"/>
</g>
<defs>
<clipPath id="clip0_534_97">
<rect width="100" height="100" fill="white"/>
</clipPath>
</defs>
</svg>
