<svg width="576" height="512" viewBox="0 0 576 512" fill="none" xmlns="http://www.w3.org/2000/svg">
<path d="M341.3 42.7L379 56.8C382 57.9 384 60.8 384 64C384 67.2 382 70.1 379 71.2L341.3 85.3L327.2 123C326.1 126 323.2 128 320 128C316.8 128 313.9 126 312.8 123L298.7 85.3L261 71.2C258 70.1 256 67.2 256 64C256 60.8 258 57.9 261 56.8L298.7 42.7L312.8 5C313.9 2 316.8 0 320 0C323.2 0 326.1 2 327.2 5L341.3 42.7ZM529.9 395.4C548.6 414.1 548.6 444.5 529.9 463.3L495.3 497.9C476.6 516.6 446.2 516.6 427.4 497.9L46.1 116.5C27.4 97.8 27.4 67.4 46.1 48.6L80.7 14.1C99.4 -4.6 129.8 -4.6 148.6 14.1L529.9 395.4ZM91.4 82.6L196.4 187.6L219.7 164.3L114.7 59.3L91.4 82.6ZM568.5 117.2C573 118.9 576 123.2 576 128C576 132.8 573 137.1 568.5 138.8L512 160L490.8 216.5C489.1 221 484.8 224 480 224C475.2 224 470.9 221 469.2 216.5L448 160L391.5 138.8C387 137.1 384 132.8 384 128C384 123.2 387 118.9 391.5 117.2L448 96L469.2 39.5C470.9 35 475.2 32 480 32C484.8 32 489.1 35 490.8 39.5L512 96L568.5 117.2ZM216.5 373.2C221 374.9 224 379.2 224 384C224 388.8 221 393.1 216.5 394.8L160 416L138.8 472.5C137.1 477 132.8 480 128 480C123.2 480 118.9 477 117.2 472.5L96 416L39.5 394.8C35 393.1 32 388.8 32 384C32 379.2 35 374.9 39.5 373.2L96 352L117.2 295.5C118.9 291 123.2 288 128 288C132.8 288 137.1 291 138.8 295.5L160 352L216.5 373.2Z" fill="black"/>
</svg>
